<?xml version="1.0" encoding="utf-8"?>
<svg version="1.1" id="unmarked" xmlns="http://www.w3.org/2000/svg" xmlns:xlink="http://www.w3.org/1999/xlink" x="0px"
	 y="0px" viewBox="0 0 30 30" style="enable-background:new 0 0 30 30;" xml:space="preserve">
<style type="text/css">
	.unmarked{fill:#FFFFFF;}
</style>
<path class="unmarked" d="M26.17,2.08C25.6,0.8,24.22,0.01,22.85,0c-0.72,0-1.44,0-2.16,0c-1.5,0-2.99,0-4.49,0c-1.64,0-3.28,0-4.92,0
	c-1.17,0-2.34,0-3.5,0C7.57,0,7.36,0,7.15,0c-0.64,0-1.28,0.17-1.84,0.49c-0.78,0.45-1.32,1.16-1.64,2c-0.26,0.67-0.2,1.45-0.2,2.16
	c0,1.02,0,2.03,0,3.05c0,1.46,0,2.93,0,4.39c0,1.67,0,3.34,0,5.02c0,1.62,0,3.24,0,4.87c0,1.32,0,2.64,0,3.96c0,0.77,0,1.54,0,2.31
	c0,0.1,0,0.21,0,0.31c0,0.76,0.67,1.48,1.45,1.45c0.09,0,0.18-0.02,0.27-0.03c0.17-0.03,0.33-0.08,0.47-0.18
	c0.02-0.01,0.04-0.03,0.06-0.04c0.03-0.02,0.05-0.04,0.08-0.05c1.08-0.75,2.16-1.49,3.23-2.23c1.78-1.23,3.56-2.46,5.33-3.68
	c0.17-0.12,0.34-0.23,0.51-0.35c0.91,0.61,1.82,1.22,2.73,1.83c1.84,1.23,3.68,2.47,5.52,3.7c0.42,0.28,0.84,0.56,1.25,0.84
	c0.42,0.28,1.03,0.25,1.46,0c0.44-0.26,0.72-0.74,0.72-1.25c0-0.42,0-0.84,0-1.26c0-1.09,0-2.18,0-3.27c0-1.5,0-3.01,0-4.51
	c0-1.67,0-3.34,0-5.02c0-1.6,0-3.2,0-4.79c0-1.27,0-2.53,0-3.8c0-0.68,0-1.37,0-2.05c0-0.05,0-0.1,0-0.16
	C26.54,3.11,26.4,2.6,26.17,2.08z M22.36,24.97c-1.84-1.23-3.68-2.47-5.52-3.7c-0.42-0.28-0.84-0.56-1.25-0.84
	c-0.4-0.27-1.06-0.27-1.46,0c-1.12,0.78-2.25,1.55-3.37,2.33c-1.46,1.01-2.93,2.02-4.39,3.03c0-0.82,0-1.63,0-2.44
	c0-1.1,0-2.2,0-3.3c0-1.2,0-2.39,0-3.59c0-1.21,0-2.42,0-3.63c0-1.12,0-2.24,0-3.36c0-0.95,0-1.89,0-2.84c0-0.67,0-1.35,0-2.01
	c0-0.3,0-0.6,0-0.91c0-0.04,0-0.08,0-0.11c0.02-0.07,0.03-0.14,0.05-0.2C6.46,3.32,6.49,3.26,6.53,3.2c0.05-0.05,0.09-0.1,0.14-0.14
	C6.73,3.02,6.8,2.98,6.86,2.95C6.92,2.93,6.99,2.91,7.05,2.9c0.15-0.01,0.3,0,0.46,0c0.38,0,0.75,0,1.12,0c1.26,0,2.52,0,3.79,0
	c1.54,0,3.09,0,4.63,0c1.32,0,2.65,0,3.97,0c0.61,0,1.23,0,1.85,0c0.03,0,0.06,0,0.1,0c0.07,0.02,0.14,0.03,0.2,0.05
	c0.06,0.03,0.12,0.07,0.18,0.11c0.05,0.05,0.1,0.09,0.14,0.14c0.04,0.06,0.08,0.12,0.11,0.19c0.02,0.06,0.04,0.13,0.05,0.19
	c0.01,0.23,0,0.47,0,0.7c0,0.59,0,1.18,0,1.76c0,0.89,0,1.78,0,2.66c0,1.09,0,2.18,0,3.27c0,1.19,0,2.39,0,3.58
	c0,1.21,0,2.43,0,3.64c0,1.13,0,2.26,0,3.38c0,0.96,0,1.92,0,2.88c0,0.13,0,0.26,0,0.39C23.22,25.55,22.79,25.26,22.36,24.97z"/>
</svg>
