<?xml version="1.0" encoding="utf-8"?>
<svg version="1.1" id="marked" xmlns="http://www.w3.org/2000/svg" xmlns:xlink="http://www.w3.org/1999/xlink" x="0px"
	 y="0px" viewBox="0 0 30 30" style="enable-background:new 0 0 30 30;" xml:space="preserve">
<style type="text/css">
	.marked{fill:#FFF000;}
</style>
<path class="marked" d="M26.17,2.08C25.6,0.8,24.22,0.01,22.85,0c-0.72,0-1.44,0-2.16,0c-1.5,0-2.99,0-4.49,0c-1.64,0-3.28,0-4.92,0
	c-1.17,0-2.34,0-3.5,0C7.57,0,7.36,0,7.15,0c-0.64,0-1.28,0.17-1.84,0.49c-0.78,0.45-1.32,1.16-1.64,2c-0.26,0.67-0.2,1.45-0.2,2.16
	c0,1.02,0,2.03,0,3.05c0,1.46,0,2.93,0,4.39c0,1.67,0,3.34,0,5.02c0,1.62,0,3.24,0,4.87c0,1.32,0,2.64,0,3.96c0,0.77,0,1.54,0,2.31
	c0,0.1,0,0.21,0,0.31c0,0.76,0.67,1.48,1.45,1.45c0.09,0,0.18-0.02,0.27-0.03c0.17-0.03,0.33-0.08,0.47-0.18
	c0.02-0.01,0.04-0.03,0.06-0.04c0.03-0.02,0.05-0.04,0.08-0.05c1.08-0.75,2.16-1.49,3.23-2.23c1.78-1.23,3.56-2.46,5.33-3.68
	c0.17-0.12,0.34-0.23,0.51-0.35c0.91,0.61,1.82,1.22,2.73,1.83c1.84,1.23,3.68,2.47,5.52,3.7c0.42,0.28,0.84,0.56,1.25,0.84
	c0.42,0.28,1.03,0.25,1.46,0c0.44-0.26,0.72-0.74,0.72-1.25c0-0.42,0-0.84,0-1.26c0-1.09,0-2.18,0-3.27c0-1.5,0-3.01,0-4.51
	c0-1.67,0-3.34,0-5.02c0-1.6,0-3.2,0-4.79c0-1.27,0-2.53,0-3.8c0-0.68,0-1.37,0-2.05c0-0.05,0-0.1,0-0.16
	C26.54,3.11,26.4,2.6,26.17,2.08z"/>
</svg>
