<?xml version="1.0" encoding="utf-8"?>
<svg version="1.1" id="logo" xmlns="http://www.w3.org/2000/svg" xmlns:xlink="http://www.w3.org/1999/xlink" x="0px"
	 y="0px" viewBox="0 0 97.2 20" style="enable-background:new 0 0 97.2 20;" xml:space="preserve">
<style type="text/css">
	.logo{fill:#FFFDFD;}
</style>
<path class="logo" d="M97.02,8.8c-0.12-0.11-0.27-0.17-0.45-0.17c-0.28,0-0.48,0.14-0.59,0.42c-0.22,0.53-0.46,1.09-0.72,1.67
	s-0.57,1.1-0.95,1.55c-0.29,0.36-0.66,0.66-1.09,0.87c-0.44,0.22-0.86,0.33-1.26,0.33c-0.56,0-1.01-0.22-1.36-0.65
	c-0.34-0.43-0.52-1.02-0.54-1.75c0.59,0,1.17-0.09,1.75-0.26c0.58-0.18,1.09-0.41,1.54-0.72c0.45-0.3,0.81-0.65,1.09-1.05
	c0.28-0.4,0.42-0.83,0.42-1.29c0-0.72-0.32-1.28-0.97-1.71c-0.65-0.42-1.49-0.63-2.55-0.63c-0.8,0-1.53,0.13-2.2,0.38
	c-0.67,0.25-1.24,0.6-1.73,1.04c-0.48,0.44-0.86,0.96-1.13,1.56c-0.12,0.26-0.2,0.53-0.27,0.81c-0.04,0.11-0.09,0.24-0.16,0.41
	c-0.11,0.26-0.22,0.55-0.36,0.87c-0.13,0.32-0.28,0.66-0.44,1c-0.16,0.34-0.32,0.66-0.48,0.95c-0.16,0.29-0.31,0.52-0.45,0.71
	c-0.14,0.18-0.27,0.27-0.38,0.27c-0.03,0-0.04-0.06-0.04-0.19c0-0.21,0.04-0.58,0.12-1.11s0.18-1.14,0.3-1.85
	c0.12-0.71,0.26-1.48,0.41-2.33C84.68,7.09,84.84,6.25,85,5.4c0.16-0.85,0.32-1.68,0.47-2.48c0.15-0.81,0.3-1.53,0.42-2.18
	c0.01-0.03,0.02-0.08,0.02-0.15c0-0.17-0.06-0.31-0.18-0.42C85.62,0.06,85.46,0,85.26,0h-2.95c-0.15,0-0.29,0.05-0.4,0.15
	c-0.11,0.1-0.18,0.22-0.21,0.38c-0.04,0.24-0.1,0.55-0.17,0.94c-0.07,0.39-0.14,0.82-0.22,1.32c-0.08,0.49-0.15,1.02-0.23,1.59
	s-0.15,1.16-0.22,1.78c-0.28-0.24-0.62-0.42-1.02-0.55c-0.4-0.13-0.89-0.19-1.46-0.19c-0.8,0-1.53,0.13-2.19,0.38
	c-0.66,0.25-1.23,0.61-1.71,1.06c-0.48,0.46-0.85,1-1.12,1.63c-0.1,0.24-0.18,0.49-0.24,0.75c-0.05-0.46-0.16-0.88-0.33-1.27
	c-0.24-0.54-0.58-1-1.01-1.38c-0.44-0.38-0.96-0.67-1.58-0.87c-0.62-0.2-1.31-0.31-2.08-0.31c-0.84,0-1.62,0.12-2.33,0.37
	c-0.71,0.25-1.32,0.59-1.83,1.02c-0.51,0.44-0.91,0.96-1.2,1.57c-0.1,0.2-0.17,0.41-0.23,0.63c-0.01,0.02-0.02,0.03-0.03,0.05
	c-0.22,0.53-0.46,1.09-0.72,1.67c-0.25,0.58-0.57,1.1-0.95,1.55c-0.29,0.36-0.63,0.66-1.01,0.87c-0.38,0.22-0.75,0.33-1.12,0.33
	c-0.49,0-0.87-0.2-1.15-0.61c-0.27-0.41-0.41-0.97-0.41-1.68c0-0.46,0.06-0.96,0.18-1.49c0.12-0.53,0.28-1.02,0.49-1.46
	c0.21-0.44,0.46-0.81,0.75-1.11c0.29-0.29,0.61-0.44,0.96-0.44c0.28,0,0.49,0.06,0.64,0.19c0.15,0.13,0.26,0.29,0.33,0.48
	c0.1,0.21,0.27,0.32,0.51,0.32c0.15,0,0.31-0.05,0.45-0.16c0.15-0.11,0.22-0.26,0.22-0.45c0-0.1-0.03-0.22-0.11-0.36
	c-0.18-0.36-0.52-0.67-1-0.92c-0.48-0.25-1.21-0.37-2.18-0.37c-0.8,0-1.53,0.13-2.19,0.38c-0.66,0.25-1.23,0.6-1.71,1.05
	c-0.48,0.45-0.85,0.98-1.12,1.6c-0.11,0.25-0.19,0.51-0.25,0.78c-0.05,0.15-0.11,0.3-0.18,0.48c-0.09,0.25-0.2,0.53-0.33,0.82
	c-0.22,0.52-0.49,0.94-0.8,1.26c-0.31,0.32-0.59,0.5-0.84,0.53c0.13-0.79,0.25-1.54,0.38-2.26c0.13-0.72,0.24-1.37,0.34-1.94
	c0.1-0.57,0.18-1.03,0.24-1.4c0.06-0.36,0.1-0.57,0.12-0.61V5.98c0-0.17-0.05-0.31-0.16-0.43c-0.11-0.12-0.26-0.18-0.47-0.18h-2.95
	c-0.15,0-0.29,0.05-0.4,0.15c-0.11,0.1-0.18,0.22-0.21,0.38c-0.03,0.14-0.07,0.49-0.12,1.06c-0.05,0.57-0.12,1.27-0.2,2.09
	c-0.08,0.22-0.22,0.58-0.4,1.05c-0.18,0.48-0.4,0.96-0.64,1.45c-0.25,0.49-0.5,0.92-0.77,1.29c-0.27,0.37-0.53,0.56-0.78,0.56
	c-0.21,0-0.36-0.13-0.44-0.39S44.4,12.42,44.4,12c0-0.46,0.04-0.99,0.13-1.59c0.08-0.6,0.18-1.18,0.28-1.75
	c0.11-0.57,0.21-1.08,0.31-1.55c0.1-0.46,0.17-0.8,0.21-1.01c0.01-0.03,0.02-0.08,0.02-0.15c0-0.17-0.06-0.31-0.18-0.42
	c-0.12-0.11-0.28-0.17-0.47-0.17h-2.95c-0.15,0-0.29,0.05-0.4,0.15c-0.11,0.1-0.18,0.22-0.21,0.38c-0.1,0.56-0.2,1.23-0.29,2.01
	c-0.04,0.32-0.07,0.65-0.09,0.98c-0.01-0.39-0.06-0.77-0.17-1.16c-0.12-0.42-0.3-0.8-0.55-1.14c-0.25-0.34-0.55-0.61-0.92-0.83
	c-0.37-0.22-0.79-0.33-1.28-0.33c-0.6,0-1.08,0.13-1.42,0.4c-0.34,0.27-0.64,0.6-0.89,0.99c-0.17,0.25-0.32,0.52-0.46,0.79
	c-0.14,0.27-0.27,0.54-0.38,0.81c-0.11,0.27-0.21,0.52-0.31,0.77c-0.09,0.25-0.17,0.45-0.24,0.62c0.15-0.62,0.29-1.23,0.42-1.84
	c0.13-0.61,0.25-1.23,0.36-1.86c0.01-0.03,0.02-0.08,0.02-0.15c0-0.17-0.06-0.31-0.18-0.42c-0.12-0.11-0.28-0.17-0.47-0.17h-2.95
	c-0.15,0-0.29,0.05-0.4,0.15c-0.11,0.1-0.18,0.22-0.21,0.38c-0.11,0.72-0.21,1.42-0.31,2.13c-0.04,0.35-0.08,0.69-0.1,1.05
	c-0.22,0.53-0.46,1.08-0.71,1.66c-0.25,0.58-0.57,1.1-0.95,1.55c-0.29,0.36-0.66,0.66-1.09,0.87c-0.44,0.22-0.86,0.33-1.26,0.33
	c-0.56,0-1.01-0.22-1.36-0.65c-0.34-0.43-0.52-1.02-0.54-1.75c0.59,0,1.17-0.09,1.75-0.26c0.58-0.18,1.09-0.41,1.54-0.72
	c0.45-0.3,0.81-0.65,1.09-1.05c0.28-0.4,0.42-0.83,0.42-1.29c0-0.72-0.32-1.28-0.97-1.71c-0.65-0.42-1.49-0.63-2.55-0.63
	c-0.8,0-1.53,0.13-2.2,0.38c-0.67,0.25-1.24,0.6-1.73,1.04c-0.48,0.44-0.86,0.96-1.13,1.56c-0.1,0.22-0.17,0.45-0.23,0.68
	c-0.03-0.44-0.1-0.85-0.24-1.22c-0.18-0.45-0.42-0.83-0.74-1.14C19.1,6.41,18.73,6.17,18.3,6c-0.43-0.17-0.89-0.25-1.4-0.25
	c-0.21,0-0.37,0.07-0.47,0.2c-0.11,0.13-0.16,0.28-0.16,0.43c0,0.15,0.05,0.3,0.16,0.43c0.11,0.13,0.26,0.2,0.47,0.2
	c0.35,0,0.53,0.35,0.53,1.05c0,0.35-0.06,0.82-0.17,1.42c-0.11,0.6-0.28,1.19-0.51,1.77s-0.5,1.09-0.83,1.52
	c-0.33,0.43-0.71,0.64-1.15,0.64c-0.38,0-0.64-0.17-0.78-0.51c-0.14-0.34-0.21-0.76-0.21-1.28c0-0.38,0.03-0.79,0.08-1.23
	C13.93,9.95,14,9.5,14.08,9.05c0.11-0.65,0.23-1.24,0.35-1.78s0.2-0.93,0.24-1.17c0.01-0.03,0.02-0.08,0.02-0.15
	c0-0.17-0.06-0.31-0.18-0.42c-0.12-0.11-0.28-0.17-0.47-0.17h-2.95c-0.15,0-0.29,0.05-0.4,0.15c-0.11,0.1-0.18,0.22-0.21,0.38
	c-0.1,0.56-0.2,1.23-0.29,2.01c-0.05,0.38-0.08,0.77-0.11,1.16c-0.22,0.53-0.46,1.09-0.71,1.66c-0.25,0.58-0.57,1.1-0.95,1.55
	c-0.29,0.36-0.66,0.66-1.09,0.87c-0.44,0.22-0.86,0.33-1.26,0.33c-0.56,0-1.01-0.22-1.36-0.65c-0.34-0.43-0.52-1.02-0.54-1.75
	c0.59,0,1.17-0.09,1.75-0.26C6.49,10.64,7,10.4,7.45,10.09c0.45-0.3,0.81-0.65,1.09-1.05c0.28-0.4,0.42-0.83,0.42-1.29
	c0-0.72-0.32-1.28-0.97-1.71S6.51,5.41,5.45,5.41c-0.8,0-1.53,0.13-2.2,0.38c-0.67,0.25-1.24,0.6-1.73,1.04
	C1.04,7.27,0.67,7.79,0.4,8.39C0.13,8.99,0,9.64,0,10.34c0,0.66,0.12,1.26,0.37,1.8c0.25,0.54,0.6,1,1.05,1.39
	c0.46,0.39,1,0.68,1.64,0.89c0.64,0.21,1.35,0.32,2.14,0.32c0.91,0,1.69-0.13,2.33-0.39c0.64-0.26,1.19-0.62,1.65-1.09
	c0.4-0.4,0.73-0.88,1.03-1.41c0.02,0.09,0.03,0.18,0.05,0.27c0.15,0.55,0.38,1.01,0.71,1.4c0.32,0.39,0.74,0.69,1.26,0.91
	c0.52,0.22,1.16,0.33,1.92,0.33c0.87,0,1.68-0.14,2.44-0.42c0.76-0.28,1.42-0.66,1.99-1.15c0.57-0.48,1.02-1.05,1.35-1.71
	c0.14-0.27,0.24-0.55,0.32-0.84c0.03,0.55,0.15,1.06,0.35,1.52c0.25,0.54,0.6,1,1.05,1.39c0.46,0.39,1,0.68,1.64,0.89
	c0.64,0.21,1.35,0.32,2.14,0.32c0.91,0,1.69-0.13,2.33-0.39c0.64-0.26,1.19-0.62,1.65-1.09c0.38-0.38,0.7-0.84,0.99-1.34
	c0.08,0.53,0.22,1.01,0.42,1.42c0.21,0.43,0.49,0.77,0.84,1.02c0.35,0.25,0.8,0.38,1.35,0.38c0.42,0,0.71-0.07,0.87-0.21
	c0.16-0.14,0.26-0.3,0.28-0.46c0.1-0.45,0.23-0.96,0.4-1.55c0.17-0.58,0.36-1.18,0.57-1.78c0.21-0.6,0.43-1.19,0.67-1.75
	c0.24-0.56,0.48-1.04,0.72-1.43c0.22-0.38,0.4-0.62,0.53-0.72c0.13-0.1,0.2-0.15,0.23-0.15c0.1,0,0.15,0.1,0.15,0.29
	c0,0.24-0.04,0.57-0.13,1c-0.08,0.43-0.13,0.87-0.13,1.32c0,0.27,0.03,0.53,0.08,0.78c0.06,0.25,0.15,0.47,0.29,0.66
	c0.14,0.19,0.33,0.34,0.58,0.45c0.25,0.11,0.56,0.17,0.94,0.17c0.28,0,0.53-0.06,0.74-0.19c0.21-0.13,0.39-0.3,0.53-0.53
	c0.14-0.22,0.25-0.48,0.32-0.77c0.03-0.12,0.05-0.24,0.07-0.36c-0.01,0.25-0.02,0.5-0.02,0.75c0,0.67,0.07,1.28,0.21,1.83
	c0.14,0.55,0.35,1.01,0.64,1.4c0.29,0.39,0.66,0.69,1.11,0.91c0.45,0.22,0.98,0.33,1.6,0.33c0.73,0,1.31-0.14,1.75-0.43
	c0.43-0.29,0.81-0.69,1.14-1.21c-0.03,0.28-0.06,0.56-0.09,0.83c-0.03,0.27-0.07,0.54-0.12,0.81c-0.17,1.21-0.51,2.18-1.03,2.91
	c-0.52,0.73-1.13,1.09-1.83,1.09c-0.27,0-0.46,0.07-0.59,0.2c-0.13,0.13-0.19,0.28-0.19,0.43c0,0.15,0.06,0.3,0.19,0.43
	c0.13,0.13,0.32,0.2,0.59,0.2c1.01,0,1.89-0.12,2.64-0.37c0.75-0.25,1.39-0.6,1.92-1.06c0.53-0.46,0.95-1.02,1.26-1.66
	c0.32-0.65,0.54-1.37,0.68-2.17c0.03-0.2,0.06-0.38,0.09-0.56c0.03-0.18,0.07-0.36,0.09-0.56c0.8-0.1,1.44-0.39,1.91-0.87
	c0.21-0.22,0.41-0.47,0.59-0.74c0.02,0.07,0.05,0.14,0.07,0.21c0.22,0.53,0.54,0.99,0.96,1.36c0.41,0.37,0.92,0.66,1.52,0.86
	c0.6,0.2,1.27,0.31,2.01,0.31c0.87,0,1.62-0.14,2.24-0.41c0.62-0.27,1.16-0.65,1.61-1.13c0.35-0.38,0.66-0.82,0.93-1.3
	c0.03,0.09,0.07,0.19,0.11,0.28c0.25,0.54,0.59,1,1.04,1.38c0.45,0.38,0.99,0.67,1.63,0.87c0.64,0.2,1.34,0.31,2.12,0.31
	c0.84,0,1.61-0.12,2.32-0.37c0.7-0.25,1.3-0.59,1.79-1.02c0.49-0.43,0.87-0.95,1.15-1.56c0.11-0.25,0.19-0.5,0.26-0.77
	c0.04,0.46,0.12,0.89,0.27,1.28c0.2,0.52,0.49,0.96,0.85,1.32c0.36,0.36,0.8,0.64,1.31,0.83c0.51,0.2,1.07,0.29,1.68,0.29
	c0.94,0,1.73-0.21,2.37-0.62c0.64-0.41,1.15-0.94,1.53-1.59c0.2,0.67,0.47,1.21,0.83,1.61c0.36,0.4,0.84,0.6,1.44,0.6
	c0.6,0,1.14-0.22,1.6-0.67c0.45-0.43,0.9-1.11,1.34-2.02c0.01,0.03,0.02,0.06,0.04,0.09c0.25,0.54,0.6,1,1.05,1.39
	c0.46,0.39,1,0.68,1.64,0.89c0.64,0.21,1.35,0.32,2.14,0.32c0.91,0,1.69-0.13,2.33-0.39c0.64-0.26,1.19-0.62,1.65-1.09
	c0.46-0.47,0.86-1.03,1.19-1.67c0.33-0.65,0.63-1.35,0.92-2.13c0.01-0.04,0.02-0.11,0.02-0.21C97.2,9.06,97.14,8.91,97.02,8.8z
	 M90.51,8.66c0.13-0.37,0.29-0.71,0.46-1c0.18-0.29,0.37-0.53,0.59-0.72c0.22-0.18,0.44-0.27,0.66-0.27c0.36,0,0.55,0.28,0.55,0.84
	c0,0.69-0.23,1.23-0.69,1.63c-0.46,0.4-1.09,0.61-1.89,0.64C90.27,9.41,90.38,9.04,90.51,8.66z M24.85,8.66
	c0.13-0.37,0.29-0.71,0.46-1c0.18-0.29,0.37-0.53,0.59-0.72c0.22-0.18,0.44-0.27,0.66-0.27c0.36,0,0.55,0.28,0.55,0.84
	c0,0.69-0.23,1.23-0.69,1.63c-0.46,0.4-1.09,0.61-1.89,0.64C24.61,9.41,24.72,9.04,24.85,8.66z M4.62,8.66
	c0.13-0.37,0.29-0.71,0.46-1c0.18-0.29,0.37-0.53,0.59-0.72c0.22-0.18,0.44-0.27,0.66-0.27c0.36,0,0.55,0.28,0.55,0.84
	c0,0.69-0.23,1.23-0.69,1.63c-0.46,0.4-1.09,0.61-1.89,0.64C4.38,9.41,4.49,9.04,4.62,8.66z M69.82,10.47
	c-0.11,0.54-0.26,1.03-0.46,1.47c-0.2,0.44-0.45,0.81-0.73,1.09c-0.28,0.29-0.6,0.43-0.97,0.43c-0.2,0-0.37-0.06-0.52-0.18
	c-0.15-0.12-0.27-0.28-0.36-0.49c-0.09-0.21-0.16-0.45-0.2-0.73c-0.04-0.27-0.06-0.56-0.06-0.87c0-0.49,0.05-1,0.16-1.54
	c0.11-0.53,0.26-1.02,0.45-1.46c0.2-0.44,0.44-0.81,0.73-1.09c0.29-0.29,0.61-0.43,0.98-0.43c0.41,0,0.7,0.22,0.87,0.66
	c0.18,0.44,0.26,0.97,0.26,1.59C69.98,9.42,69.93,9.93,69.82,10.47z M80.5,10.38c-0.11,0.55-0.27,1.05-0.48,1.51
	c-0.21,0.46-0.46,0.84-0.75,1.14c-0.29,0.3-0.61,0.45-0.96,0.45c-0.41,0-0.71-0.21-0.89-0.63c-0.19-0.42-0.28-0.93-0.28-1.54
	c0-0.51,0.06-1.03,0.17-1.57c0.11-0.54,0.27-1.04,0.48-1.49c0.21-0.46,0.46-0.83,0.75-1.13c0.29-0.29,0.61-0.44,0.96-0.44
	c0.42,0,0.72,0.21,0.91,0.62c0.18,0.41,0.27,0.92,0.27,1.51C80.67,9.31,80.62,9.83,80.5,10.38z"/>
</svg>
